<?xml version="1.0" encoding="UTF-8" standalone="no"?>
<!-- Created with Inkscape (http://www.inkscape.org/) -->

<svg
   xmlns:dc="http://purl.org/dc/elements/1.1/"
   xmlns:cc="http://creativecommons.org/ns#"
   xmlns:rdf="http://www.w3.org/1999/02/22-rdf-syntax-ns#"
   xmlns:svg="http://www.w3.org/2000/svg"
   xmlns="http://www.w3.org/2000/svg"
   xmlns:sodipodi="http://sodipodi.sourceforge.net/DTD/sodipodi-0.dtd"
   xmlns:inkscape="http://www.inkscape.org/namespaces/inkscape"
   width="2000"
   height="300"
   id="svg2"
   version="1.1"
   inkscape:version="0.48.4 r9939"
   sodipodi:docname="New document 1">
  <defs
     id="defs4" />
  <sodipodi:namedview
     id="base"
     pagecolor="#ffffff"
     bordercolor="#666666"
     borderopacity="1.0"
     inkscape:pageopacity="0.0"
     inkscape:pageshadow="2"
     inkscape:zoom="0.49497475"
     inkscape:cx="641.88393"
     inkscape:cy="341.5067"
     inkscape:document-units="px"
     inkscape:current-layer="layer1"
     showgrid="false"
     inkscape:snap-bbox="true"
     inkscape:bbox-paths="true"
     inkscape:bbox-nodes="true"
     inkscape:snap-bbox-edge-midpoints="true"
     inkscape:snap-bbox-midpoints="true"
     inkscape:window-width="1855"
     inkscape:window-height="1056"
     inkscape:window-x="65"
     inkscape:window-y="24"
     inkscape:window-maximized="1" />
  <metadata
     id="metadata7">
    <rdf:RDF>
      <cc:Work
         rdf:about="">
        <dc:format>image/svg+xml</dc:format>
        <dc:type
           rdf:resource="http://purl.org/dc/dcmitype/StillImage" />
        <dc:title></dc:title>
      </cc:Work>
    </rdf:RDF>
  </metadata>
  <g
     inkscape:label="Layer 1"
     inkscape:groupmode="layer"
     id="layer1"
     transform="translate(0,-752.36215)">
    <path
       style="fill:#ffffff;stroke:#000000;stroke-width:2;stroke-opacity:1;stroke-miterlimit:4;stroke-dasharray:none"
       d="m -2.6266618,904.40325 0,-149.53325 49.5332698,0 49.53325,0 0,149.53325 0,149.53325 -49.53325,0 -49.5332698,0 0,-149.53325 z"
       id="path3218"
       inkscape:connector-curvature="0" />
    <path
       style="fill:#ffffff;stroke:#000000;stroke-width:2;stroke-miterlimit:4;stroke-opacity:1;stroke-dasharray:none"
       d="m 97.949012,904.87995 0,-149.5333 49.533278,0 49.53325,0 0,149.5333 0,149.53325 -49.53325,0 -49.533278,0 0,-149.53325 z"
       id="path3218-2"
       inkscape:connector-curvature="0" />
    <path
       style="fill:#ffffff;stroke:#000000;stroke-width:2;stroke-miterlimit:4;stroke-opacity:1;stroke-dasharray:none"
       d="m 199.01554,904.87995 0,-149.53325 49.53327,0 49.53325,0 0,149.53325 0,149.53325 -49.53325,0 -49.53327,0 0,-149.53325 z"
       id="path3218-3"
       inkscape:connector-curvature="0" />
    <path
       style="fill:#ffffff;stroke:#000000;stroke-width:2;stroke-miterlimit:4;stroke-opacity:1;stroke-dasharray:none"
       d="m 300.08206,904.87995 0,-149.53325 49.53327,0 49.53325,0 0,149.53325 0,149.53325 -49.53325,0 -49.53327,0 0,-149.53325 z"
       id="path3218-7"
       inkscape:connector-curvature="0" />
    <path
       style="fill:#ffffff;stroke:#000000;stroke-width:2;stroke-miterlimit:4;stroke-opacity:1;stroke-dasharray:none"
       d="m 401.14858,904.87998 0,-149.53325 49.53327,0 49.53325,0 0,149.53325 0,149.53322 -49.53325,0 -49.53327,0 0,-149.53322 z"
       id="path3218-30"
       inkscape:connector-curvature="0" />
    <path
       style="fill:#ffffff;stroke:#000000;stroke-width:2;stroke-miterlimit:4;stroke-opacity:1;stroke-dasharray:none"
       d="m 502.2151,904.88001 0,-149.53329 49.53327,0 49.53325,0 0,149.53329 0,149.53319 -49.53325,0 -49.53327,0 0,-149.53319 z"
       id="path3218-0"
       inkscape:connector-curvature="0" />
    <path
       style="fill:#ffffff;stroke:#000000;stroke-width:2;stroke-miterlimit:4;stroke-opacity:1;stroke-dasharray:none"
       d="m 603.28162,904.87999 0,-149.53327 49.5333,0 49.5333,0 0,149.53327 0,149.53321 -49.5333,0 -49.5333,0 0,-149.53321 z"
       id="path3218-71"
       inkscape:connector-curvature="0" />
    <path
       style="fill:#ffffff;stroke:#000000;stroke-width:2;stroke-miterlimit:4;stroke-opacity:1;stroke-dasharray:none"
       d="m 704.34822,904.87998 0,-149.53323 49.5333,0 49.5332,0 0,149.53323 0,149.53322 -49.5332,0 -49.5333,0 0,-149.53322 z"
       id="path3218-4"
       inkscape:connector-curvature="0" />
    <path
       style="fill:#ffffff;stroke:#000000;stroke-width:2;stroke-miterlimit:4;stroke-opacity:1;stroke-dasharray:none"
       d="m 805.41472,904.88 0,-149.53325 49.5332,0 49.5333,0 0,149.53325 0,149.5332 -49.5333,0 -49.5332,0 0,-149.5332 z"
       id="path3218-6"
       inkscape:connector-curvature="0" />
    <path
       style="fill:#ffffff;stroke:#000000;stroke-width:2;stroke-miterlimit:4;stroke-opacity:1;stroke-dasharray:none"
       d="m 906.48122,904.87998 0,-149.53325 49.5332,0 49.53328,0 0,149.53325 0,149.53322 -49.53328,0 -49.5332,0 0,-149.53322 z"
       id="path3218-34"
       inkscape:connector-curvature="0" />
    <path
       style="fill:#ffffff;stroke:#000000;stroke-width:2;stroke-miterlimit:4;stroke-opacity:1;stroke-dasharray:none"
       d="m 1007.0569,905.35666 0,-149.5332 49.5333,0 49.5332,0 0,149.5332 0,149.53324 -49.5332,0 -49.5333,0 0,-149.53324 z"
       id="path3218-39"
       inkscape:connector-curvature="0" />
    <path
       style="fill:#ffffff;stroke:#000000;stroke-width:2;stroke-miterlimit:4;stroke-opacity:1;stroke-dasharray:none"
       d="m 1108.1234,905.35666 0,-149.5333 49.5332,0 49.5333,0 0,149.5333 0,149.53334 -49.5333,0 -49.5332,0 0,-149.53334 z"
       id="path3218-2-9"
       inkscape:connector-curvature="0" />
    <path
       style="fill:#ffffff;stroke:#000000;stroke-width:2;stroke-miterlimit:4;stroke-opacity:1;stroke-dasharray:none"
       d="m 1209.1899,905.35666 0,-149.5332 49.5332,0 49.5333,0 0,149.5332 0,149.53334 -49.5333,0 -49.5332,0 0,-149.53334 z"
       id="path3218-3-6"
       inkscape:connector-curvature="0" />
    <path
       style="fill:#ffffff;stroke:#000000;stroke-width:2;stroke-miterlimit:4;stroke-opacity:1;stroke-dasharray:none"
       d="m 1310.2564,905.35666 0,-149.5332 49.5333,0 49.5332,0 0,149.5332 0,149.53334 -49.5332,0 -49.5333,0 0,-149.53334 z"
       id="path3218-7-8"
       inkscape:connector-curvature="0" />
    <path
       style="fill:#ffffff;stroke:#000000;stroke-width:2;stroke-miterlimit:4;stroke-opacity:1;stroke-dasharray:none"
       d="m 1411.3229,905.35676 0,-149.5333 49.5333,0 49.5332,0 0,149.5333 0,149.53324 -49.5332,0 -49.5333,0 0,-149.53324 z"
       id="path3218-30-7"
       inkscape:connector-curvature="0" />
    <path
       style="fill:#ffffff;stroke:#000000;stroke-width:2;stroke-miterlimit:4;stroke-opacity:1;stroke-dasharray:none"
       d="m 1512.3894,905.35676 0,-149.5333 49.5333,0 49.5332,0 0,149.5333 0,149.53324 -49.5332,0 -49.5333,0 0,-149.53324 z"
       id="path3218-0-8"
       inkscape:connector-curvature="0" />
    <path
       style="fill:#ffffff;stroke:#000000;stroke-width:2;stroke-miterlimit:4;stroke-opacity:1;stroke-dasharray:none"
       d="m 1613.4559,905.35676 0,-149.5333 49.5333,0 49.5333,0 0,149.5333 0,149.53324 -49.5333,0 -49.5333,0 0,-149.53324 z"
       id="path3218-71-9"
       inkscape:connector-curvature="0" />
    <path
       style="fill:#ffffff;stroke:#000000;stroke-width:2;stroke-miterlimit:4;stroke-opacity:1;stroke-dasharray:none"
       d="m 1714.5225,905.35676 0,-149.5333 49.5333,0 49.5332,0 0,149.5333 0,149.53324 -49.5332,0 -49.5333,0 0,-149.53324 z"
       id="path3218-4-5"
       inkscape:connector-curvature="0" />
    <path
       style="fill:#ffffff;stroke:#000000;stroke-width:2;stroke-miterlimit:4;stroke-opacity:1;stroke-dasharray:none"
       d="m 1815.589,905.35676 0,-149.5333 49.5332,0 49.5333,0 0,149.5333 0,149.53324 -49.5333,0 -49.5332,0 0,-149.53324 z"
       id="path3218-6-8"
       inkscape:connector-curvature="0" />
    <path
       style="fill:#ffffff;stroke:#000000;stroke-width:2;stroke-miterlimit:4;stroke-opacity:1;stroke-dasharray:none"
       d="m 1916.6555,905.35676 0,-149.5333 49.5332,0 49.5334,0 0,149.5333 0,149.53324 -49.5334,0 -49.5332,0 0,-149.53324 z"
       id="path3218-34-3"
       inkscape:connector-curvature="0" />
    <rect
       style="fill:#000000;fill-opacity:1;fill-rule:evenodd;stroke:#000000;stroke-width:0.70090175px;stroke-linecap:butt;stroke-linejoin:miter;stroke-opacity:1"
       id="rect4107"
       width="49.299095"
       height="199.2991"
       x="72.790314"
       y="754.22046" />
    <rect
       style="fill:#000000;fill-opacity:1;fill-rule:evenodd;stroke:#000000;stroke-width:0.70090175px;stroke-linecap:butt;stroke-linejoin:miter;stroke-opacity:1"
       id="rect4107-2"
       width="49.299095"
       height="199.2991"
       x="173.366"
       y="754.69708" />
    <rect
       style="fill:#000000;fill-opacity:1;fill-rule:evenodd;stroke:#000000;stroke-width:0.70090175px;stroke-linecap:butt;stroke-linejoin:miter;stroke-opacity:1"
       id="rect4107-6"
       width="49.299095"
       height="199.2991"
       x="375.49902"
       y="754.69714" />
    <rect
       style="fill:#000000;fill-opacity:1;fill-rule:evenodd;stroke:#000000;stroke-width:0.70090175px;stroke-linecap:butt;stroke-linejoin:miter;stroke-opacity:1"
       id="rect4107-9"
       width="49.299095"
       height="199.2991"
       x="476.56555"
       y="754.69714" />
    <rect
       style="fill:#000000;fill-opacity:1;fill-rule:evenodd;stroke:#000000;stroke-width:0.70090175px;stroke-linecap:butt;stroke-linejoin:miter;stroke-opacity:1"
       id="rect4107-8"
       width="49.299095"
       height="199.2991"
       x="577.63208"
       y="754.69714" />
    <rect
       style="fill:#000000;fill-opacity:1;fill-rule:evenodd;stroke:#000000;stroke-width:0.70090175px;stroke-linecap:butt;stroke-linejoin:miter;stroke-opacity:1"
       id="rect4107-3"
       width="49.299095"
       height="199.2991"
       x="779.7652"
       y="754.6972" />
    <rect
       style="fill:#000000;fill-opacity:1;fill-rule:evenodd;stroke:#000000;stroke-width:0.70090175px;stroke-linecap:butt;stroke-linejoin:miter;stroke-opacity:1"
       id="rect4107-0"
       width="49.299095"
       height="199.2991"
       x="880.83167"
       y="754.6972" />
    <rect
       style="fill:#000000;fill-opacity:1;fill-rule:evenodd;stroke:#000000;stroke-width:0.70090175px;stroke-linecap:butt;stroke-linejoin:miter;stroke-opacity:1"
       id="rect4107-5"
       width="49.299095"
       height="199.2991"
       x="1082.9646"
       y="754.6972" />
    <rect
       style="fill:#000000;fill-opacity:1;fill-rule:evenodd;stroke:#000000;stroke-width:0.70090175px;stroke-linecap:butt;stroke-linejoin:miter;stroke-opacity:1"
       id="rect4107-7"
       width="49.299095"
       height="199.2991"
       x="1284.6068"
       y="755.17389" />
    <rect
       style="fill:#000000;fill-opacity:1;fill-rule:evenodd;stroke:#000000;stroke-width:0.70090175px;stroke-linecap:butt;stroke-linejoin:miter;stroke-opacity:1"
       id="rect4107-62"
       width="49.299095"
       height="199.2991"
       x="1183.5404"
       y="755.17383" />
    <rect
       style="fill:#000000;fill-opacity:1;fill-rule:evenodd;stroke:#000000;stroke-width:0.70090175px;stroke-linecap:butt;stroke-linejoin:miter;stroke-opacity:1"
       id="rect4107-06"
       width="49.299095"
       height="199.2991"
       x="1486.7399"
       y="755.17389" />
    <rect
       style="fill:#000000;fill-opacity:1;fill-rule:evenodd;stroke:#000000;stroke-width:0.70090175px;stroke-linecap:butt;stroke-linejoin:miter;stroke-opacity:1"
       id="rect4107-57"
       width="49.299095"
       height="199.2991"
       x="1587.8064"
       y="755.17389" />
    <rect
       style="fill:#000000;fill-opacity:1;fill-rule:evenodd;stroke:#000000;stroke-width:0.70090175px;stroke-linecap:butt;stroke-linejoin:miter;stroke-opacity:1"
       id="rect4107-09"
       width="49.299095"
       height="199.2991"
       x="1992.0725"
       y="755.17389" />
    <rect
       style="fill:#000000;fill-opacity:1;fill-rule:evenodd;stroke:#000000;stroke-width:0.70090175px;stroke-linecap:butt;stroke-linejoin:miter;stroke-opacity:1"
       id="rect4107-65"
       width="49.299095"
       height="199.2991"
       x="1891.006"
       y="755.17389" />
    <rect
       style="fill:#000000;fill-opacity:1;fill-rule:evenodd;stroke:#000000;stroke-width:0.70090175px;stroke-linecap:butt;stroke-linejoin:miter;stroke-opacity:1"
       id="rect4107-33"
       width="49.299095"
       height="199.2991"
       x="1789.9395"
       y="755.17389" />
    <text
       xml:space="preserve"
       style="font-size:204.06689453px;font-style:italic;font-variant:normal;font-weight:bold;font-stretch:normal;line-height:125%;letter-spacing:0px;word-spacing:0px;fill:#ff0000;fill-opacity:1;stroke:#ffffff;stroke-width:2.83426237;stroke-linejoin:miter;stroke-miterlimit:4;stroke-opacity:0.90588235;stroke-dasharray:none;font-family:URW Chancery L;-inkscape-font-specification:URW Chancery L Bold Italic"
       x="1205.301"
       y="837.4798"
       id="text4220"
       sodipodi:linespacing="125%"
       transform="scale(0.86709979,1.1532698)"><tspan
         sodipodi:role="line"
         id="tspan4222"
         x="1205.301"
         y="837.4798"
         style="font-style:normal;font-weight:500;text-align:center;text-anchor:middle;stroke:#ffffff;stroke-width:2.83426236999999981;stroke-linejoin:miter;stroke-miterlimit:4;stroke-opacity:0.90588234999999995;stroke-dasharray:none;-inkscape-font-specification:TeX Gyre Chorus Medium;font-family:TeX Gyre Chorus;font-stretch:normal;font-variant:normal">Tim Nast</tspan></text>
  </g>
</svg>
